<?xml version="1.0" encoding="UTF-8" standalone="no"?>
<svg
   xmlns:dc="http://purl.org/dc/elements/1.1/"
   xmlns:cc="http://creativecommons.org/ns#"
   xmlns:rdf="http://www.w3.org/1999/02/22-rdf-syntax-ns#"
   xmlns:svg="http://www.w3.org/2000/svg"
   xmlns="http://www.w3.org/2000/svg"
   xmlns:sodipodi="http://sodipodi.sourceforge.net/DTD/sodipodi-0.dtd"
   xmlns:inkscape="http://www.inkscape.org/namespaces/inkscape"
   id="Layer_1"
   data-name="Layer 1"
   viewBox="0 0 96.86 139.9"
   version="1.1"
   sodipodi:docname="mic-on.svg"
   inkscape:version="0.92.0 r15299">
  <metadata
     id="metadata6346">
    <rdf:RDF>
      <cc:Work
         rdf:about="">
        <dc:format>image/svg+xml</dc:format>
        <dc:type
           rdf:resource="http://purl.org/dc/dcmitype/StillImage" />
      </cc:Work>
    </rdf:RDF>
  </metadata>
  <defs
     id="defs6344" />
  <sodipodi:namedview
     pagecolor="#ffffff"
     bordercolor="#666666"
     borderopacity="1"
     objecttolerance="10"
     gridtolerance="10"
     guidetolerance="10"
     inkscape:pageopacity="0"
     inkscape:pageshadow="2"
     inkscape:window-width="1600"
     inkscape:window-height="848"
     id="namedview6342"
     showgrid="false"
     inkscape:zoom="1.6869193"
     inkscape:cx="1.9322369"
     inkscape:cy="121.00796"
     inkscape:window-x="-8"
     inkscape:window-y="-8"
     inkscape:window-maximized="1"
     inkscape:current-layer="Layer_1" />
  <title
     id="title6335">microphone on</title>
  <path
     fill="#01745E"
     d="M48.43,97.95a28,28,0,0,0,28-28v-32a28,28,0,1,0-56,0v32A28,28,0,0,0,48.43,97.95Zm-12-36h-12v-4h12a4,4,0,0,0,0-8h-12v-4h12a4,4,0,0,0,0-8h-12a24,24,0,0,1,48,0h-12a4,4,0,0,0,0,8h12v4h-12a4,4,0,0,0,0,8h12v4h-12a4,4,0,0,0,0,8h12a24,24,0,0,1-48,0h12A4,4,0,0,0,36.43,61.95Z"
     id="path6337" />
  <path
     fill="#01745E"
     d="M86.43,69.95h-4a34,34,0,0,1-68,0h-4a38,38,0,0,0,36,37.95v18.05h-14v4h32v-4h-14V107.9A38,38,0,0,0,86.43,69.95Z"
     id="path6339" />
  <path
     style="opacity:1;fill:#29aae3;fill-opacity:1;fill-rule:nonzero;stroke:#ffffff;stroke-width:0.33942908;stroke-linecap:square;stroke-linejoin:round;stroke-miterlimit:1;stroke-dasharray:none;stroke-dashoffset:0;stroke-opacity:1;paint-order:markers stroke fill"
     d="m 45.924076,97.799044 c -3.424014,-0.322685 -6.610422,-1.225925 -9.745714,-2.762582 -2.852425,-1.39802 -4.930442,-2.857708 -7.164657,-5.032761 -4.45605,-4.338052 -7.065397,-9.320551 -8.206906,-15.67093 -0.23493,-1.306948 -0.235538,-1.34076 -0.268898,-14.959147 l -0.03344,-13.649239 8.465704,0.0124 c 4.656137,0.0068 8.324234,0.0484 8.151326,0.09239 -0.172908,0.044 -3.108411,0.08557 -6.523341,0.09239 l -6.208963,0.0124 v 2.040413 2.040413 l 6.52569,0.02924 6.525689,0.02924 0.698172,0.34378 c 2.953305,1.454211 2.953305,5.612883 0,7.067094 l -0.698172,0.34378 -6.525689,0.02924 -6.52569,0.02924 v 2.040413 2.040413 h 6.125211 c 4.136064,0 6.305549,0.03826 6.680529,0.117827 1.216462,0.258106 2.288139,1.083906 2.768616,2.133405 1.096254,2.394535 -0.219904,5.054401 -2.768616,5.595181 -0.375073,0.07958 -2.548547,0.117827 -6.696253,0.117827 h -6.140933 l 0.07134,1.283709 c 0.487129,8.765373 5.550162,16.42779 13.415891,20.30367 4.975814,2.451859 10.702817,3.095787 16.14813,1.815647 4.157758,-0.977447 8.142733,-3.174983 11.212976,-6.183454 4.381901,-4.293738 6.858562,-9.780341 7.240774,-16.040655 l 0.07198,-1.178917 H 66.37871 c -4.090985,0 -6.325451,-0.03878 -6.695445,-0.116184 -0.75546,-0.158059 -1.6859,-0.666652 -2.140845,-1.170221 -0.207112,-0.229249 -0.524039,-0.729152 -0.704284,-1.110896 -0.286951,-0.607746 -0.327716,-0.804879 -0.327716,-1.584819 0,-0.77994 0.04076,-0.977073 0.327716,-1.584819 0.180245,-0.381745 0.497172,-0.881647 0.704284,-1.110896 0.454945,-0.503569 1.385385,-1.012162 2.140845,-1.170221 0.369905,-0.07739 2.600464,-0.116184 6.68053,-0.116184 h 6.12521 v -2.040413 -2.040413 l -6.52569,-0.02924 -6.525689,-0.02924 -0.696795,-0.343103 c -0.872586,-0.429662 -1.654512,-1.255993 -1.98117,-2.093676 -0.325703,-0.835236 -0.325078,-2.047401 0.0015,-2.885071 0.329992,-0.84646 1.177631,-1.738492 2.022866,-2.128808 l 0.658309,-0.303996 6.523341,-0.02924 6.52334,-0.02924 V 47.974383 45.93397 l -6.208962,-0.0124 c -3.41493,-0.0068 -6.350433,-0.0484 -6.523341,-0.09239 -0.172908,-0.044 3.495201,-0.08557 8.151353,-0.09239 l 8.465729,-0.0124 -0.03434,13.544446 c -0.03757,14.815543 -0.0037,13.953128 -0.662685,16.894392 -0.910986,4.066267 -3.112872,8.49228 -5.840598,11.740192 -1.764884,2.101452 -4.282975,4.294504 -6.6213,5.766612 -1.254913,0.790038 -3.800829,2.02442 -5.291352,2.5655 -1.613206,0.585614 -3.643426,1.095923 -5.41123,1.360146 -1.692705,0.252999 -4.983654,0.354587 -6.5882,0.203371 z"
     id="path6906"
     inkscape:connector-curvature="0" />
  <path
     style="opacity:1;fill:#29aae3;fill-opacity:1;fill-rule:nonzero;stroke:#ffffff;stroke-width:0.33942908;stroke-linecap:square;stroke-linejoin:round;stroke-miterlimit:1;stroke-dasharray:none;stroke-dashoffset:0;stroke-opacity:1;paint-order:markers stroke fill"
     d="m 37.251409,45.694863 c -0.03283,-0.09856 -1.948016,-0.135413 -8.399337,-0.161642 l -8.356813,-0.03397 0.04334,-5.310448 c 0.04756,-5.828396 0.08846,-6.29034 0.808784,-9.13538 1.688024,-6.667116 5.893791,-12.576957 11.687204,-16.422571 6.128693,-4.06817 13.668585,-5.5302801 20.958525,-4.064205 2.486425,0.500043 4.32838,1.136057 6.81152,2.35197 7.842552,3.840243 13.520747,11.315155 15.085062,19.85834 0.407177,2.223713 0.476642,3.417277 0.476642,8.189817 v 4.532527 l -8.348509,0.03395 c -6.232571,0.02535 -8.358811,0.06488 -8.389155,0.155979 -0.04968,0.149168 -0.426595,0.05264 -1.063845,-0.272464 -0.670113,-0.341867 -1.348495,-1.078952 -1.722894,-1.871987 -0.291069,-0.61653 -0.331648,-0.811505 -0.332653,-1.598357 -0.0011,-0.825297 0.02989,-0.958969 0.391281,-1.690193 0.464428,-0.939707 0.983314,-1.446037 1.952478,-1.905234 l 0.694082,-0.328862 6.485573,-0.03072 6.485572,-0.03072 -0.07208,-1.174396 C 71.897786,27.85139 66.90936,20.268966 59.023158,16.38325 55.61828,14.705588 52.330612,13.949652 48.439103,13.949652 c -3.876116,0 -7.164603,0.753315 -10.589484,2.425801 -7.83351,3.825367 -12.933297,11.543365 -13.420528,20.310573 l -0.07134,1.28371 h 6.140933 c 4.147706,0 6.32118,0.03824 6.696253,0.117827 3.860444,0.819101 4.304245,6.137104 0.628707,7.5337 -0.392564,0.149161 -0.540714,0.168218 -0.57223,0.07361 z"
     id="path6908"
     inkscape:connector-curvature="0" />
  <path
     style="opacity:1;fill:#29aae3;fill-opacity:1;fill-rule:nonzero;stroke:#ffffff;stroke-width:0.33942908;stroke-linecap:square;stroke-linejoin:round;stroke-miterlimit:1;stroke-dasharray:none;stroke-dashoffset:0;stroke-opacity:1;paint-order:markers stroke fill"
     d="m 32.458224,127.9342 v -1.93867 h 7.021106 7.021105 v -9.05622 -9.05622 l -0.70735,-0.0649 c -1.846959,-0.16946 -3.565774,-0.40914 -4.968362,-0.6928 C 27.613079,104.45344 16.722706,94.797951 12.428637,81.949212 11.30097,78.574998 10.719452,75.37731 10.495653,71.319983 l -0.07081,-1.28371 h 1.989021 1.98902 l 0.0625,1.70288 c 0.0679,1.850022 0.317176,3.723789 0.756745,5.688301 2.804828,12.535268 12.562536,22.500455 25.03147,25.563716 6.695976,1.64501 13.592549,1.24768 20.129546,-1.15972 1.635882,-0.60245 4.618799,-2.076606 6.132681,-3.030763 9.445172,-5.953027 15.454193,-16.241091 15.897832,-27.218723 l 0.06247,-1.545691 h 1.977602 1.977602 l -0.05277,0.812143 c -0.02903,0.446679 -0.07858,1.260131 -0.110112,1.807673 -0.311261,5.404175 -2.10423,11.293399 -4.932729,16.202156 -1.673064,2.903539 -3.559766,5.348009 -6.063968,7.856664 -3.942975,3.949991 -8.157179,6.701891 -13.28694,8.676471 -3.414684,1.3144 -6.666468,2.0384 -10.899694,2.42681 l -0.70735,0.0649 v 9.05622 9.05622 h 7.021106 7.021106 v 1.93867 1.93866 H 48.439099 32.458224 Z"
     id="path6910"
     inkscape:connector-curvature="0" />
  <path
     style="opacity:1;fill:#29aae3;fill-opacity:1;fill-rule:nonzero;stroke:#ffffff;stroke-width:0.67885816;stroke-linecap:square;stroke-linejoin:round;stroke-miterlimit:1;stroke-dasharray:none;stroke-dashoffset:0;stroke-opacity:1;paint-order:markers stroke fill"
     d="M 45.935018,93.731414 C 34.734355,92.55034 25.927271,83.757661 24.647959,72.479167 24.530282,71.44172 24.433227,70.475008 24.432281,70.330918 c -0.0013,-0.203627 1.36378,-0.262242 6.128649,-0.263151 3.84371,-6.29e-4 6.442816,-0.08791 6.968018,-0.233713 1.1352,-0.315149 2.508905,-1.716099 2.821675,-2.877641 0.429923,-1.59661 -0.289338,-3.439914 -1.709052,-4.379914 l -0.870848,-0.576595 -6.670081,-0.06075 -6.67008,-0.06075 -1.28e-4,-1.930314 -1.27e-4,-1.930311 6.002527,0.05877 c 7.001478,0.06855 7.713353,-0.04325 8.943224,-1.404569 0.677667,-0.750095 1.190229,-1.930536 1.190229,-2.741117 0,-1.360724 -0.9985,-2.897393 -2.321114,-3.57214 -0.74653,-0.380852 -1.265842,-0.40998 -7.30912,-0.40998 h -6.505491 v -1.99106 -1.99106 l 6.339953,-0.02482 c 3.486975,-0.01364 6.412961,-0.01289 6.502193,0.0017 0.280506,0.04582 1.708083,-0.752969 2.079278,-1.163445 0.466985,-0.516406 1.206517,-2.159766 1.210867,-2.690746 0.007,-0.855877 -0.45534,-2.024243 -1.084699,-2.741044 -1.268485,-1.444723 -1.241479,-1.439869 -8.444872,-1.518185 -3.572996,-0.03884 -6.527622,-0.101888 -6.565835,-0.140099 -0.144697,-0.144698 0.436414,-4.23346 0.808375,-5.687813 2.135879,-8.351207 8.6814,-14.930605 17.120942,-17.209554 1.855475,-0.501039 2.415718,-0.554519 5.926515,-0.565742 3.02512,-0.0097 4.212343,0.06901 5.401561,0.357966 8.801909,2.138695 15.658438,8.826973 17.855481,17.41733 0.396925,1.551956 0.949243,5.546946 0.789029,5.707157 -0.04885,0.04885 -2.791128,0.09267 -6.093944,0.09736 -6.743479,0.0096 -7.561492,0.131486 -8.658547,1.290299 -0.777989,0.821786 -1.020586,1.280956 -1.198409,2.268268 -0.182915,1.015587 0.353214,2.710742 1.069256,3.380815 0.594411,0.55625 1.800819,1.246223 2.09445,1.197866 0.08994,-0.01482 3.016498,-0.01576 6.503472,-0.0021 l 6.339954,0.02483 v 1.99106 1.99106 H 65.92009 c -6.081833,0 -6.558753,0.02717 -7.323343,0.417236 -0.993092,0.506639 -1.758952,1.478033 -2.114872,2.682442 -0.377427,1.277187 0.138467,2.871747 1.255653,3.881057 1.230009,1.111238 2.152648,1.231314 8.872198,1.154652 l 5.816126,-0.06635 -1.36e-4,1.938663 -1.34e-4,1.938664 H 65.99461 c -6.106996,0 -6.476826,0.0222 -7.34118,0.440626 -1.716315,0.830852 -2.637478,2.802557 -2.151871,4.605969 0.316841,1.176653 1.683089,2.575159 2.825637,2.892347 0.525202,0.145804 3.124308,0.232981 6.968018,0.233713 5.732776,10e-4 6.130368,0.02531 6.130368,0.373441 0,0.20475 -0.09929,1.171462 -0.220645,2.148249 -1.414468,11.38511 -10.276268,20.091591 -21.536902,21.159432 -2.451873,0.23251 -2.359041,0.232852 -4.733017,-0.01748 z"
     id="path6912"
     inkscape:connector-curvature="0" />
</svg>
